<svg width="100" height="87" viewBox="0 0 100 87" fill="none" xmlns="http://www.w3.org/2000/svg">
<rect x="-9.92593e-05" y="-1.93994" width="57.817" height="57.817" transform="matrix(0.707071 -0.707143 -0.707143 -0.707071 53.9436 82.7738)" stroke="black" stroke-width="2.74348"/>
<rect width="1.89251" height="11.7765" transform="matrix(0.725564 0.688155 0.688155 -0.725564 18.1631 64.311)" fill="black"/>
<circle cx="3.59578" cy="3.59578" r="2.97849" transform="matrix(1 0 0 -1 13.248 70.9458)" stroke="black" stroke-width="1.23457"/>
<circle cx="3.59578" cy="3.59578" r="2.97849" transform="matrix(1 0 0 -1 0 67.8125)" stroke="black" stroke-width="1.23457"/>
<rect width="1.89251" height="11.7765" transform="matrix(0.725564 0.688155 0.688155 -0.725564 34.0605 79.4478)" fill="black"/>
<circle cx="3.59578" cy="3.59578" r="2.97849" transform="matrix(1 0 0 -1 29.1445 86.0854)" stroke="black" stroke-width="1.23457"/>
<rect x="92.7549" y="63.5015" width="1.89251" height="11.7765" transform="rotate(133.998 92.7549 63.5015)" fill="black"/>
<rect x="77.5381" y="79.3271" width="1.89251" height="11.7765" transform="rotate(133.998 77.5381 79.3271)" fill="black"/>
<rect width="1.89251" height="11.7765" transform="matrix(-0.706796 0.707417 0.707417 0.706796 35.1123 6.04346)" fill="black"/>
<circle cx="3.59578" cy="3.59578" r="2.97849" transform="matrix(-0.026013 0.999662 0.999662 0.026013 28.6045 0.956543)" stroke="black" stroke-width="1.23457"/>
<rect width="1.89251" height="11.7765" transform="matrix(-0.706796 0.707417 0.707417 0.706796 19.5635 21.5376)" fill="black"/>
<rect width="1.89251" height="6.47527" rx="0.946257" transform="matrix(-0.706796 0.707417 0.707417 0.706796 29.3115 18.9482)" fill="black"/>
<rect width="1.89251" height="8.53584" rx="0.946257" transform="matrix(-0.706796 0.707417 0.707417 0.706796 31.6738 13.7446)" fill="black"/>
<rect width="1.89251" height="8.53584" rx="0.946257" transform="matrix(-0.706796 0.707417 0.707417 0.706796 43.3516 2.32959)" fill="black"/>
<rect width="1.89251" height="4.87482" rx="0.946257" transform="matrix(-0.706796 0.707417 0.707417 0.706796 50.4834 0)" fill="black"/>
<rect width="1.89251" height="4.87482" rx="0.946257" transform="matrix(-0.706796 0.707417 0.707417 0.706796 63.0332 77.2739)" fill="black"/>
<rect width="1.89251" height="6.45489" rx="0.946257" transform="matrix(-0.706796 0.707417 0.707417 0.706796 72.875 66.6768)" fill="black"/>
<rect width="1.89251" height="4.07046" rx="0.946257" transform="matrix(-0.706796 0.707417 0.707417 0.706796 77.417 61.7549)" fill="black"/>
<rect width="1.89251" height="10.1601" rx="0.946257" transform="matrix(-0.706796 0.707417 0.707417 0.706796 88.3936 50.7783)" fill="black"/>
<rect width="1.89251" height="6.77623" rx="0.946257" transform="matrix(-0.706796 0.707417 0.707417 0.706796 95.2061 44.7236)" fill="black"/>
<rect width="1.89251" height="8.64257" rx="0.946257" transform="matrix(-0.706796 0.707417 0.707417 0.706796 81.2021 58.7305)" fill="black"/>
<circle cx="3.59578" cy="3.59578" r="2.97849" transform="matrix(-0.026013 0.999662 0.999662 0.026013 13.0566 16.4536)" stroke="black" stroke-width="1.23457"/>
<rect width="1.89251" height="11.7765" transform="matrix(-0.727508 -0.686099 -0.686099 0.727508 92.4043 22.1123)" fill="black"/>
<circle cx="3.59578" cy="3.59578" r="2.97849" transform="matrix(-0.999996 0.00282936 0.00282936 0.999996 97.3008 15.46)" stroke="black" stroke-width="1.23457"/>
<circle cx="3.59578" cy="3.59578" r="2.97849" transform="matrix(-0.999996 0.00282936 0.00282936 0.999996 94.2471 4.22705)" stroke="black" stroke-width="1.23457"/>
<rect width="1.89251" height="11.7765" transform="matrix(-0.727508 -0.686099 -0.686099 0.727508 76.4639 7.01709)" fill="black"/>
<rect width="1.89251" height="8.22842" transform="matrix(0.241649 -0.970364 -0.970364 -0.241649 87.8486 8.42627)" fill="black"/>
<rect width="1.89251" height="8.22842" transform="matrix(0.241649 -0.970364 -0.970364 -0.241649 14.04 67.4746)" fill="black"/>
<circle cx="3.59578" cy="3.59578" r="2.97849" transform="matrix(-0.999996 0.00282936 0.00282936 0.999996 81.3604 0.362793)" stroke="black" stroke-width="1.23457"/>
<circle cx="3.59578" cy="3.59578" r="2.97849" transform="matrix(0.0231845 -0.999731 -0.999731 -0.0231845 82.1416 85.4912)" stroke="black" stroke-width="1.23457"/>
<circle cx="3.59578" cy="3.59578" r="2.97849" transform="matrix(0.0231845 -0.999731 -0.999731 -0.0231845 97.6465 69.9521)" stroke="black" stroke-width="1.23457"/>
<path d="M33.7964 43.7467L43.6826 48.0468V50.4045L30.1259 44.4835V42.9697L43.6826 37.0487V39.4064L33.7964 43.7467ZM57.295 31.6636H59.5455L52.4993 53.6999H50.2488L57.295 31.6636ZM66.1251 48.0468L76.0113 43.7467L66.1251 39.4064V37.0487L79.6817 42.9697V44.4835L66.1251 50.4045V48.0468Z" fill="black"/>
<path d="M33.7964 43.7467L33.7413 43.6211L33.4538 43.7473L33.7417 43.8725L33.7964 43.7467ZM43.6826 48.0468H43.8198V47.9569L43.7373 47.921L43.6826 48.0468ZM43.6826 50.4045L43.6277 50.5302L43.8198 50.6141V50.4045H43.6826ZM30.1259 44.4835H29.9888V44.5733L30.071 44.6092L30.1259 44.4835ZM30.1259 42.9697L30.071 42.844L29.9888 42.88V42.9697H30.1259ZM43.6826 37.0487H43.8198V36.8391L43.6277 36.923L43.6826 37.0487ZM43.6826 39.4064L43.7378 39.532L43.8198 39.496V39.4064H43.6826ZM33.7417 43.8725L43.6279 48.1726L43.7373 47.921L33.8511 43.6209L33.7417 43.8725ZM43.5454 48.0468V50.4045H43.8198V48.0468H43.5454ZM43.7375 50.2788L30.1808 44.3578L30.071 44.6092L43.6277 50.5302L43.7375 50.2788ZM30.2631 44.4835V42.9697H29.9888V44.4835H30.2631ZM30.1808 43.0955L43.7375 37.1745L43.6277 36.923L30.071 42.844L30.1808 43.0955ZM43.5454 37.0487V39.4064H43.8198V37.0487H43.5454ZM43.6275 39.2808L33.7413 43.6211L33.8516 43.8723L43.7378 39.532L43.6275 39.2808ZM57.295 31.6636V31.5264H57.1949L57.1644 31.6218L57.295 31.6636ZM59.5455 31.6636L59.6762 31.7054L59.7334 31.5264H59.5455V31.6636ZM52.4993 53.6999V53.8371H52.5994L52.6299 53.7417L52.4993 53.6999ZM50.2488 53.6999L50.1181 53.6581L50.0609 53.8371H50.2488V53.6999ZM57.295 31.8008H59.5455V31.5264H57.295V31.8008ZM59.4149 31.6218L52.3686 53.6581L52.6299 53.7417L59.6762 31.7054L59.4149 31.6218ZM52.4993 53.5627H50.2488V53.8371H52.4993V53.5627ZM50.3794 53.7417L57.4257 31.7054L57.1644 31.6218L50.1181 53.6581L50.3794 53.7417ZM66.1251 48.0468L66.0704 47.921L65.9879 47.9569V48.0468H66.1251ZM76.0113 43.7467L76.066 43.8725L76.3538 43.7473L76.0664 43.6211L76.0113 43.7467ZM66.1251 39.4064H65.9879V39.496L66.0699 39.532L66.1251 39.4064ZM66.1251 37.0487L66.18 36.923L65.9879 36.8391V37.0487H66.1251ZM79.6817 42.9697H79.8189V42.88L79.7366 42.844L79.6817 42.9697ZM79.6817 44.4835L79.7366 44.6092L79.8189 44.5733V44.4835H79.6817ZM66.1251 50.4045H65.9879V50.6141L66.18 50.5302L66.1251 50.4045ZM66.1798 48.1726L76.066 43.8725L75.9565 43.6209L66.0704 47.921L66.1798 48.1726ZM76.0664 43.6211L66.1802 39.2808L66.0699 39.532L75.9561 43.8723L76.0664 43.6211ZM66.2622 39.4064V37.0487H65.9879V39.4064H66.2622ZM66.0702 37.1745L79.6268 43.0955L79.7366 42.844L66.18 36.923L66.0702 37.1745ZM79.5446 42.9697V44.4835H79.8189V42.9697H79.5446ZM79.6268 44.3578L66.0702 50.2788L66.18 50.5302L79.7366 44.6092L79.6268 44.3578ZM66.2622 50.4045V48.0468H65.9879V50.4045H66.2622Z" fill="black"/>
</svg>
