<svg width="362" height="91" viewBox="0 0 362 91" fill="none" xmlns="http://www.w3.org/2000/svg">
<rect x="-9.92593e-05" y="-1.93994" width="57.817" height="57.817" transform="matrix(0.707071 -0.707143 -0.707143 -0.707071 53.9438 82.7737)" stroke="white" stroke-width="2.74348"/>
<rect width="1.89251" height="11.7765" transform="matrix(0.725564 0.688155 0.688155 -0.725564 18.1628 64.3109)" fill="white"/>
<circle r="2.97849" transform="matrix(1 0 0 -1 16.8436 67.3501)" stroke="white" stroke-width="1.23457"/>
<circle r="2.97849" transform="matrix(1 0 0 -1 3.59578 64.2166)" stroke="white" stroke-width="1.23457"/>
<rect width="1.89251" height="11.7765" transform="matrix(0.725564 0.688155 0.688155 -0.725564 34.0601 79.4476)" fill="white"/>
<circle r="2.97849" transform="matrix(1 0 0 -1 32.7406 82.4896)" stroke="white" stroke-width="1.23457"/>
<rect x="92.7549" y="63.5013" width="1.89251" height="11.7765" transform="rotate(133.998 92.7549 63.5013)" fill="white"/>
<rect x="77.5383" y="79.3273" width="1.89251" height="11.7765" transform="rotate(133.998 77.5383 79.3273)" fill="white"/>
<rect width="1.89251" height="11.7765" transform="matrix(-0.706796 0.707417 0.707417 0.706796 35.1118 6.04337)" fill="white"/>
<circle r="2.97849" transform="matrix(-0.026013 0.999662 0.999662 0.026013 32.1058 4.64486)" stroke="white" stroke-width="1.23457"/>
<rect width="1.89251" height="11.7765" transform="matrix(-0.706796 0.707417 0.707417 0.706796 19.5632 21.5374)" fill="white"/>
<rect width="1.89251" height="6.47527" rx="0.946257" transform="matrix(-0.706796 0.707417 0.707417 0.706796 29.312 18.9482)" fill="white"/>
<rect width="1.89251" height="8.53584" rx="0.946257" transform="matrix(-0.706796 0.707417 0.707417 0.706796 31.6741 13.7448)" fill="white"/>
<rect width="1.89251" height="8.53584" rx="0.946257" transform="matrix(-0.706796 0.707417 0.707417 0.706796 43.3516 2.32959)" fill="white"/>
<rect width="1.89251" height="4.87482" rx="0.946257" transform="matrix(-0.706796 0.707417 0.707417 0.706796 50.4834 0)" fill="white"/>
<rect width="1.89251" height="4.87482" rx="0.946257" transform="matrix(-0.706796 0.707417 0.707417 0.706796 63.0337 77.2737)" fill="white"/>
<rect width="1.89251" height="6.45489" rx="0.946257" transform="matrix(-0.706796 0.707417 0.707417 0.706796 72.8748 66.6766)" fill="white"/>
<rect width="1.89251" height="4.07046" rx="0.946257" transform="matrix(-0.706796 0.707417 0.707417 0.706796 77.4167 61.7549)" fill="white"/>
<rect width="1.89251" height="10.1601" rx="0.946257" transform="matrix(-0.706796 0.707417 0.707417 0.706796 88.3933 50.7784)" fill="white"/>
<rect width="1.89251" height="6.77623" rx="0.946257" transform="matrix(-0.706796 0.707417 0.707417 0.706796 95.2063 44.7237)" fill="white"/>
<rect width="1.89251" height="8.64257" rx="0.946257" transform="matrix(-0.706796 0.707417 0.707417 0.706796 81.2017 58.7303)" fill="white"/>
<circle r="2.97849" transform="matrix(-0.026013 0.999662 0.999662 0.026013 16.5572 20.1418)" stroke="white" stroke-width="1.23457"/>
<rect width="1.89251" height="11.7765" transform="matrix(-0.727508 -0.686099 -0.686099 0.727508 92.4038 22.1121)" fill="white"/>
<circle r="2.97849" transform="matrix(-0.999996 0.00282936 0.00282936 0.999996 93.7152 19.0661)" stroke="white" stroke-width="1.23457"/>
<circle r="2.97849" transform="matrix(-0.999996 0.00282936 0.00282936 0.999996 90.6617 7.83274)" stroke="white" stroke-width="1.23457"/>
<rect width="1.89251" height="11.7765" transform="matrix(-0.727508 -0.686099 -0.686099 0.727508 76.4641 7.01709)" fill="white"/>
<rect width="1.89251" height="8.22842" transform="matrix(0.241649 -0.970364 -0.970364 -0.241649 87.8489 8.42603)" fill="white"/>
<rect width="1.89251" height="8.22842" transform="matrix(0.241649 -0.970364 -0.970364 -0.241649 14.0405 67.4748)" fill="white"/>
<circle r="2.97849" transform="matrix(-0.999996 0.00282936 0.00282936 0.999996 77.7752 3.96898)" stroke="white" stroke-width="1.23457"/>
<circle r="2.97849" transform="matrix(0.0231845 -0.999731 -0.999731 -0.0231845 78.6302 81.8128)" stroke="white" stroke-width="1.23457"/>
<circle r="2.97849" transform="matrix(0.0231845 -0.999731 -0.999731 -0.0231845 94.1348 66.2741)" stroke="white" stroke-width="1.23457"/>
<path d="M33.7962 43.7465L43.6824 48.0466V50.4043L30.1257 44.4833V42.9696L43.6824 37.0486V39.4062L33.7962 43.7465ZM57.2948 31.6634H59.5453L52.499 53.6997H50.2485L57.2948 31.6634ZM66.1248 48.0466L76.011 43.7465L66.1248 39.4062V37.0486L79.6815 42.9696V44.4833L66.1248 50.4043V48.0466Z" fill="#FF9900"/>
<path d="M33.7962 43.7465L33.741 43.6209L33.4536 43.7471L33.7415 43.8723L33.7962 43.7465ZM43.6824 48.0466H43.8195V47.9567L43.7371 47.9208L43.6824 48.0466ZM43.6824 50.4043L43.6275 50.53L43.8195 50.6139V50.4043H43.6824ZM30.1257 44.4833H29.9885V44.5731L30.0708 44.609L30.1257 44.4833ZM30.1257 42.9696L30.0708 42.8439L29.9885 42.8798V42.9696H30.1257ZM43.6824 37.0486H43.8195V36.839L43.6275 36.9229L43.6824 37.0486ZM43.6824 39.4062L43.7375 39.5319L43.8195 39.4958V39.4062H43.6824ZM33.7415 43.8723L43.6277 48.1724L43.7371 47.9208L33.8509 43.6207L33.7415 43.8723ZM43.5452 48.0466V50.4043H43.8195V48.0466H43.5452ZM43.7373 50.2786L30.1806 44.3576L30.0708 44.609L43.6275 50.53L43.7373 50.2786ZM30.2629 44.4833V42.9696H29.9885V44.4833H30.2629ZM30.1806 43.0953L43.7373 37.1743L43.6275 36.9229L30.0708 42.8439L30.1806 43.0953ZM43.5452 37.0486V39.4062H43.8195V37.0486H43.5452ZM43.6272 39.2806L33.741 43.6209L33.8513 43.8721L43.7375 39.5319L43.6272 39.2806ZM57.2948 31.6634V31.5262H57.1946L57.1641 31.6216L57.2948 31.6634ZM59.5453 31.6634L59.6759 31.7052L59.7332 31.5262H59.5453V31.6634ZM52.499 53.6997V53.8369H52.5992L52.6297 53.7415L52.499 53.6997ZM50.2485 53.6997L50.1179 53.6579L50.0606 53.8369H50.2485V53.6997ZM57.2948 31.8006H59.5453V31.5262H57.2948V31.8006ZM59.4146 31.6216L52.3684 53.6579L52.6297 53.7415L59.6759 31.7052L59.4146 31.6216ZM52.499 53.5625H50.2485V53.8369H52.499V53.5625ZM50.3792 53.7415L57.4254 31.7052L57.1641 31.6216L50.1179 53.6579L50.3792 53.7415ZM66.1248 48.0466L66.0701 47.9208L65.9876 47.9567V48.0466H66.1248ZM76.011 43.7465L76.0657 43.8723L76.3536 43.7471L76.0662 43.6209L76.011 43.7465ZM66.1248 39.4062H65.9876V39.4958L66.0697 39.5319L66.1248 39.4062ZM66.1248 37.0486L66.1797 36.9229L65.9876 36.839V37.0486H66.1248ZM79.6815 42.9696H79.8187V42.8798L79.7364 42.8439L79.6815 42.9696ZM79.6815 44.4833L79.7364 44.609L79.8187 44.5731V44.4833H79.6815ZM66.1248 50.4043H65.9876V50.6139L66.1797 50.53L66.1248 50.4043ZM66.1795 48.1724L76.0657 43.8723L75.9563 43.6207L66.0701 47.9208L66.1795 48.1724ZM76.0662 43.6209L66.18 39.2806L66.0697 39.5319L75.9559 43.8721L76.0662 43.6209ZM66.262 39.4062V37.0486H65.9876V39.4062H66.262ZM66.0699 37.1743L79.6266 43.0953L79.7364 42.8439L66.1797 36.9229L66.0699 37.1743ZM79.5443 42.9696V44.4833H79.8187V42.9696H79.5443ZM79.6266 44.3576L66.0699 50.2786L66.1797 50.53L79.7364 44.609L79.6266 44.3576ZM66.262 50.4043V48.0466H65.9876V50.4043H66.262Z" fill="#FF9900"/>
<path d="M158.062 34.0312C157.75 32.9896 157.406 32.1354 157.031 31.4688C156.656 30.7812 156.198 30.2396 155.656 29.8438C155.115 29.4479 154.458 29.1771 153.688 29.0312C152.938 28.8646 152.031 28.7812 150.969 28.7812H143.844V41.3438H149.688C150.458 41.3438 151.094 41.25 151.594 41.0625C152.094 40.875 152.49 40.5938 152.781 40.2188C153.094 39.8438 153.323 39.3854 153.469 38.8438C153.615 38.3021 153.74 37.6771 153.844 36.9688H154.75V47.8125H153.844C153.844 46.2917 153.542 45.1667 152.938 44.4375C152.354 43.6875 151.271 43.3125 149.688 43.3125H143.844V53.375C143.844 54.3542 143.885 55.1562 143.969 55.7812C144.073 56.3854 144.281 56.8646 144.594 57.2188C144.927 57.5521 145.396 57.7812 146 57.9062C146.625 58.0312 147.448 58.0938 148.469 58.0938V59H134.781V58.0938C135.802 58.0938 136.615 58.0312 137.219 57.9062C137.823 57.7604 138.281 57.5208 138.594 57.1875C138.906 56.8333 139.104 56.3542 139.188 55.75C139.271 55.125 139.312 54.3333 139.312 53.375V32.6875C139.312 31.7292 139.26 30.9479 139.156 30.3438C139.073 29.7188 138.875 29.2292 138.562 28.875C138.25 28.5 137.792 28.25 137.188 28.125C136.583 27.9792 135.781 27.9062 134.781 27.9062V27.0625H158.562L158.906 34.0312H158.062ZM182.188 55.875C181.896 56.2708 181.562 56.6875 181.188 57.125C180.833 57.5417 180.438 57.9271 180 58.2812C179.583 58.6146 179.125 58.8854 178.625 59.0938C178.125 59.3229 177.604 59.4375 177.062 59.4375C176.562 59.4375 176.146 59.3333 175.812 59.125C175.5 58.9167 175.25 58.6458 175.062 58.3125C174.875 57.9583 174.74 57.5729 174.656 57.1562C174.594 56.7396 174.562 56.3125 174.562 55.875C174.042 56.2917 173.521 56.7083 173 57.125C172.479 57.5417 171.938 57.9271 171.375 58.2812C170.812 58.6146 170.229 58.8854 169.625 59.0938C169.021 59.3229 168.365 59.4375 167.656 59.4375C166.844 59.4375 166.115 59.2917 165.469 59C164.844 58.7292 164.312 58.3438 163.875 57.8438C163.438 57.3438 163.104 56.7604 162.875 56.0938C162.646 55.4062 162.531 54.6667 162.531 53.875C162.531 53 162.729 52.1979 163.125 51.4688C163.542 50.7396 164.083 50.0729 164.75 49.4688C165.417 48.8646 166.177 48.3229 167.031 47.8438C167.885 47.3438 168.76 46.9062 169.656 46.5312C170.552 46.1354 171.427 45.7917 172.281 45.5C173.135 45.2083 173.896 44.9479 174.562 44.7188V43.8438C174.562 43.1146 174.51 42.4167 174.406 41.75C174.323 41.0625 174.135 40.4583 173.844 39.9375C173.552 39.3958 173.146 38.9688 172.625 38.6562C172.104 38.3438 171.406 38.1875 170.531 38.1875C169.802 38.1875 169.229 38.2917 168.812 38.5C168.396 38.6875 168.073 38.9688 167.844 39.3438C167.635 39.6979 167.5 40.125 167.438 40.625C167.375 41.1042 167.344 41.6354 167.344 42.2188C167.344 42.9271 167.208 43.4792 166.938 43.875C166.667 44.2708 166.135 44.4688 165.344 44.4688C164.615 44.4688 164.104 44.2604 163.812 43.8438C163.521 43.4271 163.375 42.8854 163.375 42.2188C163.375 41.2396 163.635 40.4062 164.156 39.7188C164.677 39.0312 165.323 38.4688 166.094 38.0312C166.885 37.5938 167.74 37.2812 168.656 37.0938C169.573 36.8854 170.438 36.7812 171.25 36.7812C172.604 36.7812 173.74 36.9167 174.656 37.1875C175.594 37.4375 176.344 37.8646 176.906 38.4688C177.469 39.0521 177.865 39.8125 178.094 40.75C178.344 41.6875 178.469 42.8229 178.469 44.1562V51.5C178.469 51.8125 178.469 52.1458 178.469 52.5C178.469 52.8542 178.469 53.2083 178.469 53.5625C178.49 53.8958 178.5 54.2188 178.5 54.5312C178.521 54.8229 178.552 55.0729 178.594 55.2812C178.635 55.5729 178.729 55.8438 178.875 56.0938C179.021 56.3229 179.271 56.4375 179.625 56.4375C179.792 56.4375 180 56.3646 180.25 56.2188C180.5 56.0521 180.75 55.8646 181 55.6562C181.25 55.4479 181.479 55.2396 181.688 55.0312C181.917 54.8229 182.083 54.6562 182.188 54.5312V55.875ZM174.562 46.0625C173.771 46.3542 172.906 46.7083 171.969 47.125C171.031 47.5417 170.156 48.0312 169.344 48.5938C168.531 49.1354 167.854 49.7604 167.312 50.4688C166.771 51.1562 166.5 51.9271 166.5 52.7812C166.5 53.2604 166.573 53.7292 166.719 54.1875C166.865 54.6458 167.083 55.0625 167.375 55.4375C167.667 55.8125 168.01 56.1146 168.406 56.3438C168.823 56.5729 169.302 56.6875 169.844 56.6875C170.26 56.6875 170.677 56.6146 171.094 56.4688C171.51 56.3229 171.917 56.1354 172.312 55.9062C172.729 55.6562 173.125 55.3958 173.5 55.125C173.896 54.8333 174.25 54.5625 174.562 54.3125V46.0625ZM184.031 59V58.0938C184.781 58.0938 185.365 58.0104 185.781 57.8438C186.219 57.6562 186.542 57.3958 186.75 57.0625C186.979 56.7292 187.115 56.3229 187.156 55.8438C187.219 55.3438 187.25 54.7708 187.25 54.125V32.4688C187.25 31.9479 187.229 31.4583 187.188 31C187.167 30.5208 187.094 30.1042 186.969 29.75C186.844 29.3958 186.667 29.1146 186.438 28.9062C186.208 28.6979 185.896 28.5938 185.5 28.5938C185.25 28.5938 185.01 28.625 184.781 28.6875C184.552 28.7292 184.302 28.8021 184.031 28.9062L183.656 28.0938L190.125 25.5312H191.156V54.125C191.156 54.8542 191.188 55.4688 191.25 55.9688C191.333 56.4688 191.49 56.875 191.719 57.1875C191.969 57.5 192.323 57.7292 192.781 57.875C193.24 58.0208 193.865 58.0938 194.656 58.0938V59H184.031ZM209.625 59V58.0938C209.771 58.0938 209.927 58.0938 210.094 58.0938C210.281 58.0729 210.448 58.0312 210.594 57.9688C210.74 57.9062 210.865 57.8229 210.969 57.7188C211.073 57.6146 211.125 57.4688 211.125 57.2812C211.125 56.9271 211.021 56.5938 210.812 56.2812C210.604 55.9688 210.406 55.6771 210.219 55.4062L203.625 47.0938V54.125C203.625 54.875 203.646 55.5104 203.688 56.0312C203.75 56.5312 203.885 56.9375 204.094 57.25C204.323 57.5625 204.667 57.7812 205.125 57.9062C205.604 58.0312 206.26 58.0938 207.094 58.0938V59H196V58.0938C196.812 58.0938 197.448 58.0417 197.906 57.9375C198.385 57.8333 198.75 57.6458 199 57.375C199.25 57.0833 199.406 56.6875 199.469 56.1875C199.552 55.6875 199.594 55.0417 199.594 54.25V32.2188C199.594 30.9062 199.479 29.9688 199.25 29.4062C199.042 28.8229 198.625 28.5312 198 28.5312C197.729 28.5312 197.469 28.5729 197.219 28.6562C196.969 28.7188 196.719 28.8021 196.469 28.9062L196 28.0938L202.531 25.5312H203.625V46.5938L209.062 41.9688C209.188 41.8646 209.375 41.7083 209.625 41.5C209.875 41.2708 210.125 41.0312 210.375 40.7812C210.625 40.5312 210.844 40.2812 211.031 40.0312C211.219 39.7604 211.312 39.5312 211.312 39.3438C211.312 39.1354 211.26 38.9583 211.156 38.8125C211.052 38.6458 210.917 38.5208 210.75 38.4375C210.583 38.3333 210.396 38.2604 210.188 38.2188C210 38.1771 209.812 38.1458 209.625 38.125V37.4375H218.969V38.125C218.302 38.1667 217.698 38.2396 217.156 38.3438C216.635 38.4271 216.146 38.5729 215.688 38.7812C215.229 38.9896 214.781 39.25 214.344 39.5625C213.927 39.875 213.469 40.25 212.969 40.6875L207.281 45.75L214.062 54.2188C214.75 55.0729 215.333 55.7604 215.812 56.2812C216.292 56.7812 216.74 57.1667 217.156 57.4375C217.594 57.7083 218.031 57.8854 218.469 57.9688C218.927 58.0521 219.458 58.0938 220.062 58.0938V59H209.625ZM239.844 51.125C239.677 52.25 239.344 53.3333 238.844 54.375C238.365 55.3958 237.74 56.3021 236.969 57.0938C236.198 57.8854 235.302 58.5208 234.281 59C233.281 59.4792 232.188 59.7188 231 59.7188C229.458 59.7188 228.094 59.3958 226.906 58.75C225.74 58.1042 224.76 57.25 223.969 56.1875C223.177 55.125 222.583 53.9271 222.188 52.5938C221.792 51.2396 221.594 49.8542 221.594 48.4375C221.594 46.875 221.792 45.3958 222.188 44C222.604 42.5833 223.219 41.3438 224.031 40.2812C224.865 39.2188 225.906 38.375 227.156 37.75C228.427 37.1042 229.906 36.7812 231.594 36.7812C232.885 36.7812 234.042 37 235.062 37.4375C236.083 37.875 236.948 38.4896 237.656 39.2812C238.365 40.0521 238.906 40.9792 239.281 42.0625C239.656 43.125 239.844 44.2917 239.844 45.5625H224.938C224.938 46.7292 225.094 47.9167 225.406 49.125C225.719 50.3333 226.198 51.4375 226.844 52.4375C227.49 53.4167 228.302 54.2292 229.281 54.875C230.281 55.5 231.458 55.8125 232.812 55.8125C233.646 55.8125 234.385 55.6875 235.031 55.4375C235.698 55.1667 236.281 54.8021 236.781 54.3438C237.302 53.8646 237.75 53.3125 238.125 52.6875C238.5 52.0417 238.833 51.3542 239.125 50.625L239.844 51.125ZM234.906 44.2188C234.906 43.5104 234.812 42.8125 234.625 42.125C234.458 41.4167 234.177 40.8021 233.781 40.2812C233.406 39.7396 232.927 39.3021 232.344 38.9688C231.76 38.6354 231.062 38.4688 230.25 38.4688C229.438 38.4688 228.719 38.6354 228.094 38.9688C227.469 39.2812 226.927 39.7083 226.469 40.25C226.031 40.7708 225.677 41.3854 225.406 42.0938C225.156 42.7812 225 43.4896 224.938 44.2188H234.906ZM254.5 59V58.0938C255.312 58.0938 255.948 58.0312 256.406 57.9062C256.885 57.7812 257.24 57.5729 257.469 57.2812C257.719 56.9688 257.875 56.5625 257.938 56.0625C258 55.5417 258.031 54.8958 258.031 54.125V45.3125C258.031 44.7083 258 44.0729 257.938 43.4062C257.896 42.7396 257.76 42.1354 257.531 41.5938C257.302 41.0312 256.958 40.5729 256.5 40.2188C256.042 39.8646 255.417 39.6875 254.625 39.6875C254.062 39.6875 253.521 39.7812 253 39.9688C252.479 40.1354 251.979 40.3646 251.5 40.6562C251.042 40.9271 250.604 41.25 250.188 41.625C249.792 42 249.417 42.375 249.062 42.75V54.125C249.062 54.875 249.094 55.5104 249.156 56.0312C249.219 56.5312 249.365 56.9375 249.594 57.25C249.823 57.5625 250.167 57.7812 250.625 57.9062C251.104 58.0312 251.75 58.0938 252.562 58.0938V59H241.812V58.0938C242.604 58.0938 243.219 58.0208 243.656 57.875C244.094 57.7083 244.417 57.4688 244.625 57.1562C244.854 56.8229 244.99 56.4062 245.031 55.9062C245.073 55.4062 245.094 54.8125 245.094 54.125V44.1875C245.094 43.6458 245.073 43.125 245.031 42.625C245.01 42.1042 244.938 41.6458 244.812 41.25C244.708 40.8333 244.542 40.5 244.312 40.25C244.104 40 243.812 39.875 243.438 39.875C243.167 39.875 242.896 39.9167 242.625 40C242.354 40.0625 242.083 40.1458 241.812 40.25L241.5 39.4062L248.094 36.7812H249.062V41.3438C249.5 40.8229 249.979 40.2917 250.5 39.75C251.042 39.2083 251.615 38.7188 252.219 38.2812C252.823 37.8438 253.469 37.4896 254.156 37.2188C254.844 36.9271 255.552 36.7812 256.281 36.7812C257.448 36.7812 258.396 37.0208 259.125 37.5C259.875 37.9792 260.458 38.6146 260.875 39.4062C261.292 40.1771 261.573 41.0521 261.719 42.0312C261.865 42.9896 261.938 43.9479 261.938 44.9062V54.125C261.938 54.8125 261.969 55.4062 262.031 55.9062C262.094 56.4062 262.229 56.8229 262.438 57.1562C262.667 57.4688 263 57.7083 263.438 57.875C263.896 58.0208 264.521 58.0938 265.312 58.0938V59H254.5Z" fill="white"/>
<path d="M298.344 42.875C298.344 45.5833 297.885 47.9479 296.969 49.9688C296.073 51.9688 294.823 53.6458 293.219 55C291.635 56.3333 289.75 57.3333 287.562 58C285.396 58.6667 283.031 59 280.469 59H266.219V58.0938C267.219 58.0938 268.01 58.0312 268.594 57.9062C269.198 57.7812 269.656 57.5521 269.969 57.2188C270.281 56.8646 270.49 56.3854 270.594 55.7812C270.698 55.1562 270.75 54.3542 270.75 53.375V32.6875C270.75 31.6875 270.708 30.875 270.625 30.25C270.542 29.625 270.344 29.1458 270.031 28.8125C269.719 28.4583 269.26 28.2188 268.656 28.0938C268.052 27.9688 267.24 27.9062 266.219 27.9062V27.0625H279.188C281.875 27.0625 284.385 27.3125 286.719 27.8125C289.052 28.3125 291.073 29.1771 292.781 30.4062C294.51 31.6146 295.865 33.2292 296.844 35.25C297.844 37.2708 298.344 39.8125 298.344 42.875ZM293.031 43.0625C293.031 41.1042 292.75 39.2604 292.188 37.5312C291.646 35.8021 290.823 34.2917 289.719 33C288.635 31.7083 287.292 30.6979 285.688 29.9688C284.083 29.2188 282.24 28.8438 280.156 28.8438C279.323 28.8438 278.5 28.9062 277.688 29.0312C276.896 29.1562 276.094 29.3333 275.281 29.5625V56.6875C276.094 56.8958 276.917 57.0729 277.75 57.2188C278.604 57.3438 279.448 57.4062 280.281 57.4062C282.365 57.4062 284.198 57.0312 285.781 56.2812C287.365 55.5104 288.688 54.4792 289.75 53.1875C290.833 51.875 291.646 50.3542 292.188 48.625C292.75 46.875 293.031 45.0208 293.031 43.0625ZM320.219 51.125C320.052 52.25 319.719 53.3333 319.219 54.375C318.74 55.3958 318.115 56.3021 317.344 57.0938C316.573 57.8854 315.677 58.5208 314.656 59C313.656 59.4792 312.562 59.7188 311.375 59.7188C309.833 59.7188 308.469 59.3958 307.281 58.75C306.115 58.1042 305.135 57.25 304.344 56.1875C303.552 55.125 302.958 53.9271 302.562 52.5938C302.167 51.2396 301.969 49.8542 301.969 48.4375C301.969 46.875 302.167 45.3958 302.562 44C302.979 42.5833 303.594 41.3438 304.406 40.2812C305.24 39.2188 306.281 38.375 307.531 37.75C308.802 37.1042 310.281 36.7812 311.969 36.7812C313.26 36.7812 314.417 37 315.438 37.4375C316.458 37.875 317.323 38.4896 318.031 39.2812C318.74 40.0521 319.281 40.9792 319.656 42.0625C320.031 43.125 320.219 44.2917 320.219 45.5625H305.312C305.312 46.7292 305.469 47.9167 305.781 49.125C306.094 50.3333 306.573 51.4375 307.219 52.4375C307.865 53.4167 308.677 54.2292 309.656 54.875C310.656 55.5 311.833 55.8125 313.188 55.8125C314.021 55.8125 314.76 55.6875 315.406 55.4375C316.073 55.1667 316.656 54.8021 317.156 54.3438C317.677 53.8646 318.125 53.3125 318.5 52.6875C318.875 52.0417 319.208 51.3542 319.5 50.625L320.219 51.125ZM315.281 44.2188C315.281 43.5104 315.188 42.8125 315 42.125C314.833 41.4167 314.552 40.8021 314.156 40.2812C313.781 39.7396 313.302 39.3021 312.719 38.9688C312.135 38.6354 311.438 38.4688 310.625 38.4688C309.812 38.4688 309.094 38.6354 308.469 38.9688C307.844 39.2812 307.302 39.7083 306.844 40.25C306.406 40.7708 306.052 41.3854 305.781 42.0938C305.531 42.7812 305.375 43.4896 305.312 44.2188H315.281ZM345.312 38.3125C344.812 38.3333 344.396 38.4167 344.062 38.5625C343.729 38.6875 343.448 38.875 343.219 39.125C342.99 39.3542 342.792 39.6458 342.625 40C342.458 40.3333 342.281 40.7188 342.094 41.1562L334.5 59.7188H333.531L325.781 41.4062C325.552 40.8854 325.323 40.4479 325.094 40.0938C324.885 39.7396 324.635 39.4479 324.344 39.2188C324.073 38.9896 323.74 38.8021 323.344 38.6562C322.969 38.5104 322.521 38.3958 322 38.3125V37.4375H332.188V38.3125C331.854 38.3125 331.531 38.3229 331.219 38.3438C330.906 38.3646 330.635 38.4271 330.406 38.5312C330.177 38.6354 329.99 38.8021 329.844 39.0312C329.698 39.2604 329.625 39.5833 329.625 40C329.625 40.3542 329.677 40.6875 329.781 41C329.885 41.3125 330 41.6146 330.125 41.9062L335.125 53.8125L340.188 41.4062C340.312 41.1146 340.427 40.8021 340.531 40.4688C340.635 40.1146 340.688 39.7604 340.688 39.4062C340.688 39.1562 340.615 38.9583 340.469 38.8125C340.344 38.6667 340.167 38.5625 339.938 38.5C339.708 38.4167 339.448 38.3646 339.156 38.3438C338.865 38.3229 338.562 38.3125 338.25 38.3125V37.4375H345.312V38.3125Z" fill="#FF9900"/>
</svg>
